<svg version="1.1" viewBox="0.0 0.0 230.3989501312336 192.0" fill="none" stroke="none" stroke-linecap="square"
     stroke-miterlimit="10"
     xmlns="http://www.w3.org/2000/svg"><clipPath id="g3630ab10031_0_66.0"><path d="m0 0l230.39896 0l0 192.0l-230.39896 0l0 -192.0z" clip-rule="nonzero"/></clipPath><g clip-path="url(#g3630ab10031_0_66.0)"><path fill="#ffffff" d="m0 0l230.39896 0l0 192.0l-230.39896 0z" fill-rule="evenodd"/><path fill="#999999" d="m17.27559 142.45932l46.078743 0l0 33.606293l-46.078743 0z" fill-rule="evenodd"/><path stroke="#b7b7b7" stroke-width="24.0" stroke-linejoin="round" stroke-linecap="butt" d="m17.27559 142.45932l46.078743 0l0 33.606293l-46.078743 0z" fill-rule="evenodd"/><path fill="#999999" d="m100.702095 77.23097l47.999992 0l0 98.83464l-47.999992 0z" fill-rule="evenodd"/><path stroke="#b7b7b7" stroke-width="24.0" stroke-linejoin="round" stroke-linecap="butt" d="m100.702095 77.23097l47.999992 0l0 98.83464l-47.999992 0z" fill-rule="evenodd"/><path fill="#b7b7b7" d="m100.41754 75.36009l0 0c0 -31.815079 25.791222 -57.606297 57.606308 -57.606297l0 0c15.278137 0 29.930527 6.0692177 40.733795 16.872494c10.803284 10.803276 16.872498 25.455666 16.872498 40.733803l0 0c0 31.815086 -25.791214 57.606308 -57.606293 57.606308l0 0c-31.815086 0 -57.606308 -25.791222 -57.606308 -57.606308z" fill-rule="evenodd"/><path stroke="#b7b7b7" stroke-width="24.0" stroke-linejoin="round" stroke-linecap="butt" d="m100.41754 75.36009l0 0c0 -31.815079 25.791222 -57.606297 57.606308 -57.606297l0 0c15.278137 0 29.930527 6.0692177 40.733795 16.872494c10.803284 10.803276 16.872498 25.455666 16.872498 40.733803l0 0c0 31.815086 -25.791214 57.606308 -57.606293 57.606308l0 0c-31.815086 0 -57.606308 -25.791222 -57.606308 -57.606308z" fill-rule="evenodd"/><path fill="#b7b7b7" d="m12.3314905 75.35952l0 0c0 -16.177158 12.959065 -29.29134 28.944881 -29.29134l0 0c7.6766624 0 15.038906 3.0860443 20.467125 8.579235c5.428219 5.493191 8.4777565 12.943558 8.4777565 20.712105l0 0c0 16.177162 -12.9590645 29.291336 -28.944881 29.291336l0 0c-15.985815 0 -28.944881 -13.114174 -28.944881 -29.291336z" fill-rule="evenodd"/><path stroke="#1a73e8" stroke-width="24.0" stroke-linejoin="round" stroke-linecap="butt" d="m12.3314905 75.35952l0 0c0 -16.177158 12.959065 -29.29134 28.944881 -29.29134l0 0c7.6766624 0 15.038906 3.0860443 20.467125 8.579235c5.428219 5.493191 8.4777565 12.943558 8.4777565 20.712105l0 0c0 16.177162 -12.9590645 29.291336 -28.944881 29.291336l0 0c-15.985815 0 -28.944881 -13.114174 -28.944881 -29.291336z" fill-rule="evenodd"/><path fill="#ffffff" d="m129.07796 75.35952l0 0c0 -16.177158 12.959061 -29.29134 28.94487 -29.29134l0 0c7.6766663 0 15.03891 3.0860443 20.467133 8.579235c5.4282074 5.493191 8.477753 12.943558 8.477753 20.712105l0 0c0 16.177162 -12.959061 29.291336 -28.944885 29.291336l0 0c-15.985809 0 -28.94487 -13.114174 -28.94487 -29.291336z" fill-rule="evenodd"/><path stroke="#1a73e8" stroke-width="24.0" stroke-linejoin="round" stroke-linecap="butt" d="m129.07796 75.35952l0 0c0 -16.177158 12.959061 -29.29134 28.94487 -29.29134l0 0c7.6766663 0 15.03891 3.0860443 20.467133 8.579235c5.4282074 5.493191 8.477753 12.943558 8.477753 20.712105l0 0c0 16.177162 -12.959061 29.291336 -28.944885 29.291336l0 0c-15.985809 0 -28.94487 -13.114174 -28.94487 -29.291336z" fill-rule="evenodd"/><path fill="#000000" fill-opacity="0.0" d="m36.385036 46.06818l121.63779 0" fill-rule="evenodd"/><path stroke="#1a73e8" stroke-width="24.0" stroke-linejoin="round" stroke-linecap="butt" d="m36.385036 46.06818l121.63779 0" fill-rule="evenodd"/><path fill="#000000" fill-opacity="0.0" d="m36.385036 104.58787l121.63779 0.06298828" fill-rule="evenodd"/><path stroke="#1a73e8" stroke-width="24.0" stroke-linejoin="round" stroke-linecap="butt" d="m36.385036 104.58787l121.63779 0.06298828" fill-rule="evenodd"/></g></svg>