<svg version="1.1" viewBox="0.0 0.0 211.1994750656168 182.3989501312336" fill="none" stroke="none"
     stroke-linecap="square" stroke-miterlimit="10" xmlns:xlink="http://www.w3.org/1999/xlink"
     xmlns="http://www.w3.org/2000/svg">
    <clipPath id="g36894560d47_0_0.0">
        <path d="m0 0l211.19948 0l0 182.39896l-211.19948 0l0 -182.39896z" clip-rule="nonzero"/>
    </clipPath>
    <g clip-path="url(#g36894560d47_0_0.0)">
        <path fill="#ffffff" d="m0 0l211.19948 0l0 182.39896l-211.19948 0z" fill-rule="evenodd"/>
        <path fill="#20124d"
              d="m75.95134 70.122055l0 0c0 -35.35492 30.275421 -64.01575 67.622055 -64.01575l0 0c17.934479 0 35.134415 6.744497 47.815994 18.749777c12.681595 12.005283 19.806046 28.287937 19.806046 45.26597l0 0c0 35.354927 -30.275421 64.01575 -67.62204 64.01575l0 0c-37.346634 0 -67.622055 -28.66082 -67.622055 -64.01575z"
              fill-rule="evenodd"/>
        <defs>
            <radialGradient id="g36894560d47_0_0.1" gradientUnits="userSpaceOnUse"
                            gradientTransform="matrix(0.0 6.33245073669564 -6.33245073669564 0.0 0.0 0.0)"
                            spreadMethod="pad" cx="22.009870677257794" cy="-6.605322667003209" fx="22.009870677257794"
                            fy="-6.605322667003209" r="6.332450866699219">
                <stop offset="0.0" stop-color="#4d29aa"/>
                <stop offset="1.0" stop-color="#1e123d"/>
            </radialGradient>
        </defs>
        <path fill="url(#g36894560d47_0_0.1)"
              d="m57.638905 102.52603l0 0c3.3950806E-4 0 6.1416626E-4 2.746582E-4 6.1416626E-4 6.1035156E-4l-6.1416626E-4 73.70018c0 1.5258789E-4 -6.484985E-5 3.0517578E-4 -1.7929077E-4 4.272461E-4c-1.18255615E-4 1.2207031E-4 -2.746582E-4 1.8310547E-4 -4.348755E-4 1.8310547E-4l-31.621433 -6.1035156E-4c-3.3950806E-4 0 -6.1416626E-4 -2.746582E-4 -6.1416626E-4 -6.2561035E-4l6.1416626E-4 -73.700165l0 0c0 -3.4332275E-4 2.746582E-4 -6.1798096E-4 6.1416626E-4 -6.1798096E-4z"
              fill-rule="evenodd"/>
        <path fill="#20124d"
              d="m108.92813 102.52843l0 0c3.3569336E-4 0 6.1035156E-4 2.746582E-4 6.1035156E-4 6.1035156E-4l-6.1035156E-4 73.70018c0 1.5258789E-4 -6.866455E-5 3.2043457E-4 -1.8310547E-4 4.272461E-4c-1.1444092E-4 1.2207031E-4 -2.746582E-4 1.8310547E-4 -4.348755E-4 1.8310547E-4l-31.62143 -6.1035156E-4c-3.4332275E-4 0 -6.1798096E-4 -2.746582E-4 -6.1798096E-4 -6.2561035E-4l6.1798096E-4 -73.700165l0 0c0 -3.4332275E-4 2.746582E-4 -6.1798096E-4 6.1035156E-4 -6.1798096E-4z"
              fill-rule="evenodd"/>
        <defs>
            <radialGradient id="g36894560d47_0_0.2" gradientUnits="userSpaceOnUse"
                            gradientTransform="matrix(6.748504090219451 0.0 0.0 6.748504090219451 0.0 0.0)"
                            spreadMethod="pad" cx="14.869601285016094" cy="3.2484433634559156" fx="14.869601285016094"
                            fy="3.2484433634559156" r="6.748504161834717">
                <stop offset="0.0" stop-color="#4d29aa"/>
                <stop offset="1.0" stop-color="#1e123d"/>
            </radialGradient>
        </defs>
        <path fill="url(#g36894560d47_0_0.2)"
              d="m57.638905 6.1111093l0 0c0 -3.9291382E-4 3.1661987E-4 -7.1144104E-4 7.095337E-4 -7.1144104E-4l85.41661 7.1144104E-4c1.8310547E-4 0 3.6621094E-4 7.534027E-5 5.0354004E-4 2.0885468E-4c1.373291E-4 1.335144E-4 2.1362305E-4 3.142357E-4 2.1362305E-4 5.030632E-4l-7.171631E-4 31.621338c0 3.9291382E-4 -3.2043457E-4 7.095337E-4 -7.171631E-4 7.095337E-4l-85.41661 -7.095337E-4l0 0c-3.9291382E-4 0 -7.133484E-4 -3.2043457E-4 -7.133484E-4 -7.133484E-4z"
              fill-rule="evenodd"/>
        <path fill="#20124d"
              d="m77.30497 102.52603l0 0c0 -3.0517578E-4 2.5177002E-4 -5.493164E-4 5.493164E-4 -5.493164E-4l65.826225 5.493164E-4c1.5258789E-4 0 2.89917E-4 5.340576E-5 3.8146973E-4 1.6021729E-4c1.0681152E-4 9.918213E-5 1.6784668E-4 2.3651123E-4 1.6784668E-4 3.8146973E-4l-5.493164E-4 31.621498c0 3.0517578E-4 -2.4414062E-4 5.493164E-4 -5.493164E-4 5.493164E-4l-65.826225 -5.493164E-4l0 0c-2.975464E-4 0 -5.493164E-4 -2.4414062E-4 -5.493164E-4 -5.493164E-4z"
              fill-rule="evenodd"/>
        <path fill="#ffffff" d="m3.1096394 37.73491l143.2441 0l0 64.7874l-143.2441 0z" fill-rule="evenodd"/>
        <path fill="#ffffff"
              d="m108.92813 70.12311l0 0c0 -17.890549 15.511391 -32.393703 34.64566 -32.393703l0 0c19.134277 0 34.645676 14.503155 34.645676 32.393703l0 0c0 17.890541 -15.511398 32.3937 -34.645676 32.3937l0 0c-19.13427 0 -34.64566 -14.503159 -34.64566 -32.3937z"
              fill-rule="evenodd"/>
        <path fill="#20124d"
              d="m122.31564 70.12959l0 0c0 -8.732189 7.078842 -15.811024 15.81102 -15.811024l0 0c4.193344 0 8.214951 1.6657982 11.180084 4.6309395c2.965149 2.965145 4.630951 6.98674 4.630951 11.180084l0 0c0 8.732185 -7.078842 15.81102 -15.811035 15.81102l0 0c-8.732178 0 -15.81102 -7.0788345 -15.81102 -15.81102z"
              fill-rule="evenodd"/>
        <path fill="#20124d"
              d="m8.384929 70.12959l0 0c0 -8.732189 7.0788364 -15.811024 15.811023 -15.811024l0 0c4.193344 0 8.214941 1.6657982 11.180082 4.6309395c2.9651413 2.965145 4.6309433 6.98674 4.6309433 11.180084l0 0c0 8.732185 -7.0788383 15.81102 -15.811026 15.81102l0 0c-8.732186 0 -15.811023 -7.0788345 -15.811023 -15.81102z"
              fill-rule="evenodd"/>
        <defs>
            <radialGradient id="g36894560d47_0_0.3" gradientUnits="userSpaceOnUse"
                            gradientTransform="matrix(7.645135117268111 0.0 0.0 7.645135117268111 0.0 0.0)"
                            spreadMethod="pad" cx="10.568194590578058" cy="9.172971875619483" fx="10.568194590578058"
                            fy="9.172971875619483" r="7.645134925842285">
                <stop offset="0.0" stop-color="#4d29aa"/>
                <stop offset="1.0" stop-color="#1e123d"/>
            </radialGradient>
        </defs>
        <path fill="url(#g36894560d47_0_0.3)"
              d="m24.52756 54.317585l0 0c0 -5.187988E-4 4.196167E-4 -9.384155E-4 9.384155E-4 -9.384155E-4l112.53449 9.384155E-4c2.593994E-4 0 4.8828125E-4 9.918213E-5 6.713867E-4 2.746582E-4c1.6784668E-4 1.7547607E-4 2.746582E-4 4.15802E-4 2.746582E-4 6.637573E-4l-9.460449E-4 31.621113c0 5.1116943E-4 -4.119873E-4 9.3078613E-4 -9.3078613E-4 9.3078613E-4l-112.5345 -9.3078613E-4l0 0c-5.187988E-4 0 -9.384155E-4 -4.272461E-4 -9.384155E-4 -9.384155E-4z"
              fill-rule="evenodd"/>
    </g>
</svg>