<svg version="1.1" viewBox="0.0 0.0 211.1994750656168 182.3989501312336" fill="none" stroke="none"
     stroke-linecap="square" stroke-miterlimit="10" xmlns:xlink="http://www.w3.org/1999/xlink"
     xmlns="http://www.w3.org/2000/svg">
    <clipPath id="g368a32fc919_0_17.0">
        <path d="m0 0l211.19948 0l0 182.39896l-211.19948 0l0 -182.39896z" clip-rule="nonzero"/>
    </clipPath>
    <g clip-path="url(#g368a32fc919_0_17.0)">
        <defs>
            <radialGradient id="g368a32fc919_0_17.1" gradientUnits="userSpaceOnUse"
                            gradientTransform="matrix(0.0 6.1676854717214615 -6.1676854717214615 0.0 0.0 0.0)"
                            spreadMethod="pad" cx="22.619009533247464" cy="-7.37834448528875" fx="22.619009533247464"
                            fy="-7.37834448528875" r="6.167685508728027">
                <stop offset="0.0" stop-color="#ac91ff"/>
                <stop offset="1.0" stop-color="#c4b2ff"/>
            </radialGradient>
        </defs>
        <path fill="url(#g368a32fc919_0_17.1)"
              d="m60.499435 104.5463l0 0c3.2043457E-4 0 5.79834E-4 2.670288E-4 5.79834E-4 5.874634E-4l-5.79834E-4 69.92067c0 1.6784668E-4 -6.484985E-5 3.0517578E-4 -1.7166138E-4 4.119873E-4c-1.1062622E-4 1.2207031E-4 -2.593994E-4 1.8310547E-4 -4.119873E-4 1.8310547E-4l-29.98367 -5.950928E-4c-3.2234192E-4 0 -5.836487E-4 -2.593994E-4 -5.836487E-4 -5.79834E-4l5.836487E-4 -69.92068l0 0c0 -3.2043457E-4 2.593994E-4 -5.79834E-4 5.8174133E-4 -5.79834E-4z"
              fill-rule="evenodd"/>
        <defs>
            <linearGradient id="g368a32fc919_0_17.2" gradientUnits="userSpaceOnUse"
                            gradientTransform="matrix(9.000512616634937 0.0 0.0 9.000512616634937 0.0 0.0)"
                            spreadMethod="pad" x1="6.721701530710551" y1="4.7865405591412085" x2="15.722214147345491"
                            y2="4.7865405591412085">
                <stop offset="0.0" stop-color="#c4b2ff"/>
                <stop offset="1.0" stop-color="#ac91ff"/>
            </linearGradient>
        </defs>
        <path fill="url(#g368a32fc919_0_17.2)"
              d="m60.499435 13.096394l0 0c0 -3.7288666E-4 3.0136108E-4 -6.752014E-4 6.713867E-4 -6.752014E-4l81.0072 6.752014E-4c1.8310547E-4 0 3.5095215E-4 7.1525574E-5 4.7302246E-4 1.9741058E-4c1.2207031E-4 1.2683868E-4 1.9836426E-4 2.9850006E-4 1.9836426E-4 4.7779083E-4l-6.713867E-4 29.983578c0 3.7384033E-4 -3.0517578E-4 6.752014E-4 -6.713867E-4 6.752014E-4l-81.0072 -6.752014E-4l0 0c-3.7384033E-4 0 -6.752014E-4 -3.0136108E-4 -6.752014E-4 -6.752014E-4z"
              fill-rule="evenodd"/>
        <defs>
            <linearGradient id="g368a32fc919_0_17.3" gradientUnits="userSpaceOnUse"
                            gradientTransform="matrix(5.695761896091909 0.0 0.0 5.695761896091909 0.0 0.0)"
                            spreadMethod="pad" x1="24.85857445315031" y1="18.35499220253952" x2="19.162812557208866"
                            y2="18.354950801516836">
                <stop offset="0.0" stop-color="#ac91ff"/>
                <stop offset="1.0" stop-color="#c4b2ff"/>
            </linearGradient>
        </defs>
        <path fill="url(#g368a32fc919_0_17.3)"
              d="m109.14709 104.54593l0 0c0 -1.449585E-4 1.2207031E-4 -2.670288E-4 2.746582E-4 -2.670288E-4l32.440666 2.670288E-4c7.6293945E-5 0 1.5258789E-4 3.0517578E-5 1.9836426E-4 8.392334E-5c4.5776367E-5 4.5776367E-5 7.6293945E-5 1.1444092E-4 7.6293945E-5 1.9073486E-4l-2.746582E-4 29.983978c0 1.5258789E-4 -1.2207031E-4 2.746582E-4 -2.593994E-4 2.746582E-4l-32.44068 -2.746582E-4l0 0c-1.449585E-4 0 -2.670288E-4 -1.2207031E-4 -2.670288E-4 -2.746582E-4z"
              fill-rule="evenodd"/>
        <path fill="#ac91ff"
              d="m121.60069 73.81348l0 0c0 -8.2799225 6.712204 -14.992126 14.992126 -14.992126l0 0c3.9761505 0 7.789459 1.5795212 10.601028 4.3910904c2.8115692 2.8115692 4.391098 6.624878 4.391098 10.601036l0 0c0 8.2799225 -6.712204 14.992126 -14.992126 14.992126l0 0c-8.2799225 0 -14.992126 -6.712204 -14.992126 -14.992126z"
              fill-rule="evenodd"/>
        <path fill="#c4b2ff"
              d="m13.782633 73.81348l0 0c0 -8.2799225 6.712204 -14.992126 14.992126 -14.992126l0 0c3.97616 0 7.789465 1.5795212 10.601034 4.3910904c2.8115692 2.8115692 4.3910904 6.624878 4.3910904 10.601036l0 0c0 8.2799225 -6.712204 14.992126 -14.992125 14.992126l0 0c-8.2799225 0 -14.992126 -6.712204 -14.992126 -14.992126z"
              fill-rule="evenodd"/>
        <defs>
            <linearGradient id="g368a32fc919_0_17.4" gradientUnits="userSpaceOnUse"
                            gradientTransform="matrix(10.330074427831933 0.0 0.0 10.330074427831933 0.0 0.0)"
                            spreadMethod="pad" x1="2.8163238470832592" y1="8.59679759265157" x2="13.146398274915192"
                            y2="8.59679759265157">
                <stop offset="0.0" stop-color="#c4b2ff"/>
                <stop offset="1.0" stop-color="#ac91ff"/>
            </linearGradient>
        </defs>
        <path fill="url(#g368a32fc919_0_17.4)"
              d="m29.093723 58.820415l0 0c0 -4.8828125E-4 3.9863586E-4 -8.8882446E-4 8.8882446E-4 -8.8882446E-4l106.70777 8.8882446E-4c2.4414062E-4 0 4.5776367E-4 9.536743E-5 6.2561035E-4 2.632141E-4c1.6784668E-4 1.6403198E-4 2.593994E-4 3.9291382E-4 2.593994E-4 6.2942505E-4l-8.8500977E-4 29.983364c0 4.8828125E-4 -3.9672852E-4 8.8500977E-4 -8.8500977E-4 8.8500977E-4l-106.70778 -8.8500977E-4l0 0c-4.9209595E-4 0 -8.8882446E-4 -4.043579E-4 -8.8882446E-4 -8.9263916E-4z"
              fill-rule="evenodd"/>
        <defs>
            <linearGradient id="g368a32fc919_0_17.5" gradientUnits="userSpaceOnUse"
                            gradientTransform="matrix(-0.004043488134908896 7.789780088686157 -7.789780088686157 -0.004043488134908896 0.0 0.0)"
                            spreadMethod="pad" x1="1.6901852601051992" y1="-25.73725901593872" x2="1.6901571271129525"
                            y2="-17.94747892730336">
                <stop offset="0.0" stop-color="#c4b2ff"/>
                <stop offset="1.0" stop-color="#ac91ff"/>
            </linearGradient>
        </defs>
        <path fill="url(#g368a32fc919_0_17.5)"
              d="m140.07819 13.238886l0 0c21.621078 0.025226593 41.57773 11.630917 52.34253 30.439524c10.764801 18.808605 10.699738 41.958134 -0.1706543 60.716824c-10.870407 18.758682 -30.892044 30.272125 -52.51297 30.197586l0.1181488 -29.961494l0 0c10.908661 0.037857056 21.010468 -5.7902985 26.495132 -15.28614c5.484665 -9.495842 5.5176086 -21.21444 0.08639526 -30.735634c-5.4312134 -9.521194 -15.500122 -15.396202 -26.408844 -15.409012z"
              fill-rule="evenodd"/>
        <path fill="#c4b2ff"
              d="m109.146645 104.548584l0 0c3.2043457E-4 0 5.79834E-4 2.593994E-4 5.79834E-4 5.79834E-4l-5.79834E-4 69.92067c0 1.6784668E-4 -6.1035156E-5 3.0517578E-4 -1.7547607E-4 4.119873E-4c-1.0681152E-4 1.2207031E-4 -2.5177002E-4 1.8310547E-4 -4.119873E-4 1.8310547E-4l-29.983665 -5.950928E-4c-3.2043457E-4 0 -5.79834E-4 -2.593994E-4 -5.79834E-4 -5.79834E-4l5.79834E-4 -69.92067l0 0c0 -3.2806396E-4 2.593994E-4 -5.874634E-4 5.79834E-4 -5.874634E-4z"
              fill-rule="evenodd"/>
    </g>
</svg>