<svg version="1.1" viewBox="0.0 0.0 288.0 240.0" fill="none" stroke="none" stroke-linecap="square"
     stroke-miterlimit="10" xmlns="http://www.w3.org/2000/svg">
    <clipPath id="g3630ab10031_0_66.0">
        <path d="m0 0l288.0 0l0 240.0l-288.0 0l0 -240.0z" clip-rule="nonzero"/>
    </clipPath>
    <g clip-path="url(#g3630ab10031_0_66.0)">
<!--        <path fill="#ffffff" d="m0 0l288.0 0l0 240.0l-288.0 0z" fill-rule="evenodd"/>-->
        <path fill="#999999" d="m21.176664 166.77383l60.850388 0l0 63.181107l-60.850388 0z" fill-rule="evenodd"/>
        <path stroke="#999999" stroke-width="24.0" stroke-linejoin="round" stroke-linecap="butt"
              d="m21.176664 166.77383l60.850388 0l0 63.181107l-60.850388 0z" fill-rule="evenodd"/>
        <path fill="#999999" d="m125.31752 96.538055l66.77165 0l0 133.41733l-66.77165 0z" fill-rule="evenodd"/>
        <path stroke="#999999" stroke-width="24.0" stroke-linejoin="round" stroke-linecap="butt"
              d="m125.31752 96.538055l66.77165 0l0 133.41733l-66.77165 0z" fill-rule="evenodd"/>
        <path fill="#999999"
              d="m125.3176 93.51967l0 0c0 -39.7645 33.20143 -72.0 74.15747 -72.0l0 0c19.6678 0 38.530045 7.5856915 52.43727 21.08831c13.907211 13.502621 21.72023 31.816105 21.72023 50.911686l0 0c0 39.76451 -33.201447 72.0 -74.1575 72.0l0 0c-40.95604 0 -74.15747 -32.23549 -74.15747 -72.0z"
              fill-rule="evenodd"/>
        <path stroke="#999999" stroke-width="24.0" stroke-linejoin="round" stroke-linecap="butt"
              d="m125.3176 93.51967l0 0c0 -39.7645 33.20143 -72.0 74.15747 -72.0l0 0c19.6678 0 38.530045 7.5856915 52.43727 21.08831c13.907211 13.502621 21.72023 31.816105 21.72023 50.911686l0 0c0 39.76451 -33.201447 72.0 -74.1575 72.0l0 0c-40.95604 0 -74.15747 -32.23549 -74.15747 -72.0z"
              fill-rule="evenodd"/>
        <path fill="#999999"
              d="m15.4144335 94.1994l0 0c0 -20.22145 16.202358 -36.614174 36.188976 -36.614174l0 0c9.597916 0 18.80272 3.8575516 25.58947 10.724045c6.786751 6.8664856 10.59951 16.179443 10.59951 25.89013l0 0c0 20.22145 -16.202362 36.614166 -36.18898 36.614166l0 0c-19.986618 0 -36.188976 -16.392715 -36.188976 -36.614166z"
              fill-rule="evenodd"/>
        <path stroke="#1a73e8" stroke-width="24.0" stroke-linejoin="round" stroke-linecap="butt"
              d="m15.4144335 94.1994l0 0c0 -20.22145 16.202358 -36.614174 36.188976 -36.614174l0 0c9.597916 0 18.80272 3.8575516 25.58947 10.724045c6.786751 6.8664856 10.59951 16.179443 10.59951 25.89013l0 0c0 20.22145 -16.202362 36.614166 -36.18898 36.614166l0 0c-19.986618 0 -36.188976 -16.392715 -36.188976 -36.614166z"
              fill-rule="evenodd"/>
        <path fill="#ffffff"
              d="m163.28587 94.1994l0 0c0 -20.22145 16.202362 -36.614174 36.18898 -36.614174l0 0c9.597916 0 18.80272 3.8575516 25.589462 10.724045c6.7867584 6.8664856 10.599518 16.179443 10.599518 25.89013l0 0c0 20.22145 -16.202362 36.614166 -36.18898 36.614166l0 0c-19.986618 0 -36.18898 -16.392715 -36.18898 -36.614166z"
              fill-rule="evenodd"/>
        <path stroke="#1a73e8" stroke-width="24.0" stroke-linejoin="round" stroke-linecap="butt"
              d="m163.28587 94.1994l0 0c0 -20.22145 16.202362 -36.614174 36.18898 -36.614174l0 0c9.597916 0 18.80272 3.8575516 25.589462 10.724045c6.7867584 6.8664856 10.599518 16.179443 10.599518 25.89013l0 0c0 20.22145 -16.202362 36.614166 -36.18898 36.614166l0 0c-19.986618 0 -36.18898 -16.392715 -36.18898 -36.614166z"
              fill-rule="evenodd"/>
        <path fill="#000000" fill-opacity="0.0" d="m47.443356 57.585228l152.0315 0" fill-rule="evenodd"/>
        <path stroke="#1a73e8" stroke-width="24.0" stroke-linejoin="round" stroke-linecap="butt"
              d="m47.443356 57.585228l152.0315 0" fill-rule="evenodd"/>
        <path fill="#000000" fill-opacity="0.0" d="m47.443356 130.75058l152.0315 0.06298828" fill-rule="evenodd"/>
        <path stroke="#1a73e8" stroke-width="24.0" stroke-linejoin="round" stroke-linecap="butt"
              d="m47.443356 130.75058l152.0315 0.06298828" fill-rule="evenodd"/>
    </g>
</svg>