<svg version="1.1" viewBox="0.0 0.0 345.6010498687664 288.0" fill="none" stroke="none" stroke-linecap="square"
     stroke-miterlimit="10" xmlns="http://www.w3.org/2000/svg">
    <clipPath id="g3630ab10031_0_66.0">
        <path d="m0 0l345.60104 0l0 288.0l-345.60104 0l0 -288.0z" clip-rule="nonzero"/>
    </clipPath>
    <g clip-path="url(#g3630ab10031_0_66.0)">
        <path fill="none" d="m0 0l345.60104 0l0 288.0l-345.60104 0z" fill-rule="evenodd"/>
        <path fill="#999999" d="m24.391474 193.00523l93.00787 0l0 94.23622l-93.00787 0z" fill-rule="evenodd"/>
        <path fill="#999999" d="m140.61775 102.6161l93.00787 0l0 184.59842l-93.00787 0z" fill-rule="evenodd"/>
        <path fill="#999999"
              d="m140.61748 99.57481l0 0c0 -54.99365 45.89258 -99.57481 102.50394 -99.57481l0 0c27.185715 0 53.25801 10.490887 72.48122 29.164785c19.223236 18.673899 30.022705 44.001137 30.022705 70.41002l0 0c0 54.993645 -45.89258 99.57481 -102.50392 99.57481l0 0c-56.61136 0 -102.50394 -44.58116 -102.50394 -99.57481z"
              fill-rule="evenodd"/>
        <path fill="#999999"
              d="m15.188978 99.60606l0 0c0 -26.022614 20.82052 -47.11811 46.503937 -47.11811l0 0c12.333614 0 24.162067 4.9642143 32.88325 13.800575c8.721176 8.836357 13.620689 20.821037 13.620689 33.317535l0 0c0 26.022614 -20.820526 47.11811 -46.50394 47.11811l0 0c-25.683414 0 -46.503937 -21.095497 -46.503937 -47.11811z"
              fill-rule="evenodd"/>
        <path stroke="#1a73e8" stroke-width="24.0" stroke-linejoin="round" stroke-linecap="butt"
              d="m15.188978 99.60606l0 0c0 -26.022614 20.82052 -47.11811 46.503937 -47.11811l0 0c12.333614 0 24.162067 4.9642143 32.88325 13.800575c8.721176 8.836357 13.620689 20.821037 13.620689 33.317535l0 0c0 26.022614 -20.820526 47.11811 -46.50394 47.11811l0 0c-25.683414 0 -46.503937 -21.095497 -46.503937 -47.11811z"
              fill-rule="evenodd"/>
        <path fill="#ffffff"
              d="m196.5951 99.60606l0 0c0 -26.022614 20.82051 -47.11811 46.503937 -47.11811l0 0c12.333603 0 24.162048 4.9642143 32.88324 13.800575c8.721191 8.836357 13.620697 20.821037 13.620697 33.317535l0 0c0 26.022614 -20.820526 47.11811 -46.503937 47.11811l0 0c-25.683426 0 -46.503937 -21.095497 -46.503937 -47.11811z"
              fill-rule="evenodd"/>
        <path stroke="#1a73e8" stroke-width="24.0" stroke-linejoin="round" stroke-linecap="butt"
              d="m196.5951 99.60606l0 0c0 -26.022614 20.82051 -47.11811 46.503937 -47.11811l0 0c12.333603 0 24.162048 4.9642143 32.88324 13.800575c8.721191 8.836357 13.620697 20.821037 13.620697 33.317535l0 0c0 26.022614 -20.820526 47.11811 -46.503937 47.11811l0 0c-25.683426 0 -46.503937 -21.095497 -46.503937 -47.11811z"
              fill-rule="evenodd"/>
        <path fill="#000000" fill-opacity="0.0" d="m56.303627 52.487946l181.44882 0" fill-rule="evenodd"/>
        <path stroke="#1a73e8" stroke-width="24.0" stroke-linejoin="round" stroke-linecap="butt"
              d="m56.303627 52.487946l181.44882 0" fill-rule="evenodd"/>
        <path fill="#000000" fill-opacity="0.0" d="m56.303627 146.6469l181.44882 0" fill-rule="evenodd"/>
        <path stroke="#1a73e8" stroke-width="24.0" stroke-linejoin="round" stroke-linecap="butt"
              d="m56.303627 146.6469l181.44882 0" fill-rule="evenodd"/>
    </g>
</svg>