<svg version="1.1" viewBox="0.0 0.0 211.1994750656168 182.3989501312336" fill="none" stroke="none"
     stroke-linecap="square" stroke-miterlimit="10" xmlns:xlink="http://www.w3.org/1999/xlink"
     xmlns="http://www.w3.org/2000/svg">
    <clipPath id="g368a32fc919_0_0.0">
        <path d="m0 0l211.19948 0l0 182.39896l-211.19948 0l0 -182.39896z" clip-rule="nonzero"/>
    </clipPath>
    <g clip-path="url(#g368a32fc919_0_0.0)">
<!--        <path fill="#ffffff" d="m0 0l211.19948 0l0 182.39896l-211.19948 0z" fill-rule="evenodd"/>-->
        <defs>
            <radialGradient id="g368a32fc919_0_0.1" gradientUnits="userSpaceOnUse"
                            gradientTransform="matrix(0.0 6.1676854717214615 -6.1676854717214615 0.0 0.0 0.0)"
                            spreadMethod="pad" cx="22.619009533247464" cy="-7.37834448528875" fx="22.619009533247464"
                            fy="-7.37834448528875" r="6.167685508728027">
                <stop offset="0.0" stop-color="#4d29aa"/>
                <stop offset="1.0" stop-color="#1e123d"/>
            </radialGradient>
        </defs>
        <path fill="url(#g368a32fc919_0_0.1)"
              d="m60.499435 104.5463l0 0c3.2043457E-4 0 5.79834E-4 2.670288E-4 5.79834E-4 5.874634E-4l-5.79834E-4 69.92067c0 1.6784668E-4 -6.484985E-5 3.0517578E-4 -1.7166138E-4 4.119873E-4c-1.1062622E-4 1.2207031E-4 -2.593994E-4 1.8310547E-4 -4.119873E-4 1.8310547E-4l-29.98367 -5.950928E-4c-3.2234192E-4 0 -5.836487E-4 -2.593994E-4 -5.836487E-4 -5.79834E-4l5.836487E-4 -69.92068l0 0c0 -3.2043457E-4 2.593994E-4 -5.79834E-4 5.8174133E-4 -5.79834E-4z"
              fill-rule="evenodd"/>
        <defs>
            <radialGradient id="g368a32fc919_0_0.2" gradientUnits="userSpaceOnUse"
                            gradientTransform="matrix(6.571937736208081 0.0 0.0 6.571937736208081 0.0 0.0)"
                            spreadMethod="pad" cx="15.368887329409194" cy="4.274008822501986" fx="15.368887329409194"
                            fy="4.274008822501986" r="6.571937561035156">
                <stop offset="0.0" stop-color="#4d29aa"/>
                <stop offset="1.0" stop-color="#1e123d"/>
            </radialGradient>
        </defs>
        <path fill="url(#g368a32fc919_0_0.2)"
              d="m60.499435 13.096394l0 0c0 -3.7288666E-4 3.0136108E-4 -6.752014E-4 6.713867E-4 -6.752014E-4l81.0072 6.752014E-4c1.8310547E-4 0 3.5095215E-4 7.1525574E-5 4.7302246E-4 1.9741058E-4c1.2207031E-4 1.2683868E-4 1.9836426E-4 2.9850006E-4 1.9836426E-4 4.7779083E-4l-6.713867E-4 29.983578c0 3.7384033E-4 -3.0517578E-4 6.752014E-4 -6.713867E-4 6.752014E-4l-81.0072 -6.752014E-4l0 0c-3.7384033E-4 0 -6.752014E-4 -3.0136108E-4 -6.752014E-4 -6.752014E-4z"
              fill-rule="evenodd"/>
        <path fill="#20124d"
              d="m79.152466 104.5463l0 0c0 -2.822876E-4 2.2888184E-4 -5.187988E-4 5.187988E-4 -5.187988E-4l62.424667 5.187988E-4c1.5258789E-4 0 2.746582E-4 6.1035156E-5 3.8146973E-4 1.5258789E-4c9.1552734E-5 9.918213E-5 1.5258789E-4 2.3651123E-4 1.5258789E-4 3.7384033E-4l-5.340576E-4 29.983734c0 2.89917E-4 -2.2888184E-4 5.187988E-4 -5.187988E-4 5.187988E-4l-62.424667 -5.187988E-4l0 0c-2.89917E-4 0 -5.264282E-4 -2.4414062E-4 -5.264282E-4 -5.187988E-4z"
              fill-rule="evenodd"/>
        <path fill="#20124d"
              d="m121.60069 73.81348l0 0c0 -8.2799225 6.712204 -14.992126 14.992126 -14.992126l0 0c3.9761505 0 7.789459 1.5795212 10.601028 4.3910904c2.8115692 2.8115692 4.391098 6.624878 4.391098 10.601036l0 0c0 8.2799225 -6.712204 14.992126 -14.992126 14.992126l0 0c-8.2799225 0 -14.992126 -6.712204 -14.992126 -14.992126z"
              fill-rule="evenodd"/>
        <path fill="#20124d"
              d="m13.782633 73.81348l0 0c0 -8.2799225 6.712204 -14.992126 14.992126 -14.992126l0 0c3.97616 0 7.789465 1.5795212 10.601034 4.3910904c2.8115692 2.8115692 4.3910904 6.624878 4.3910904 10.601036l0 0c0 8.2799225 -6.712204 14.992126 -14.992125 14.992126l0 0c-8.2799225 0 -14.992126 -6.712204 -14.992126 -14.992126z"
              fill-rule="evenodd"/>
        <defs>
            <radialGradient id="g368a32fc919_0_0.3" gradientUnits="userSpaceOnUse"
                            gradientTransform="matrix(7.444578352209855 0.0 0.0 7.444578352209855 0.0 0.0)"
                            spreadMethod="pad" cx="11.074912494043444" cy="9.9149394732996" fx="11.074912494043444"
                            fy="9.9149394732996" r="7.444578170776367">
                <stop offset="0.0" stop-color="#4d29aa"/>
                <stop offset="1.0" stop-color="#1e123d"/>
            </radialGradient>
        </defs>
        <path fill="url(#g368a32fc919_0_0.3)"
              d="m29.093723 58.820415l0 0c0 -4.8828125E-4 3.9863586E-4 -8.8882446E-4 8.8882446E-4 -8.8882446E-4l106.70777 8.8882446E-4c2.4414062E-4 0 4.5776367E-4 9.536743E-5 6.2561035E-4 2.632141E-4c1.6784668E-4 1.6403198E-4 2.593994E-4 3.9291382E-4 2.593994E-4 6.2942505E-4l-8.8500977E-4 29.983364c0 4.8828125E-4 -3.9672852E-4 8.8500977E-4 -8.8500977E-4 8.8500977E-4l-106.70778 -8.8500977E-4l0 0c-4.9209595E-4 0 -8.8882446E-4 -4.043579E-4 -8.8882446E-4 -8.9263916E-4z"
              fill-rule="evenodd"/>
        <defs>
            <radialGradient id="g368a32fc919_0_0.4" gradientUnits="userSpaceOnUse"
                            gradientTransform="matrix(-0.004275366172388566 8.236493139175534 -8.236493139175534 -0.004275366172388566 0.0 0.0)"
                            spreadMethod="pad" cx="8.965386020597144" cy="-20.65770227630026" fx="8.965386020597144"
                            fy="-20.65770227630026" r="8.236493110656738">
                <stop offset="0.0" stop-color="#4d29aa"/>
                <stop offset="1.0" stop-color="#1e123d"/>
            </radialGradient>
        </defs>
        <path fill="url(#g368a32fc919_0_0.4)"
              d="m140.07819 13.238886l0 0c21.621078 0.025226593 41.57773 11.630917 52.34253 30.439524c10.764801 18.808605 10.699738 41.958134 -0.1706543 60.716824c-10.870407 18.758682 -30.892044 30.272125 -52.51297 30.197586l0.1181488 -29.961494l0 0c10.908661 0.037857056 21.010468 -5.7902985 26.495132 -15.28614c5.484665 -9.495842 5.5176086 -21.21444 0.08639526 -30.735634c-5.4312134 -9.521194 -15.500122 -15.396202 -26.408844 -15.409012z"
              fill-rule="evenodd"/>
        <path fill="#20124d"
              d="m109.146645 104.548584l0 0c3.2043457E-4 0 5.79834E-4 2.593994E-4 5.79834E-4 5.79834E-4l-5.79834E-4 69.92067c0 1.6784668E-4 -6.1035156E-5 3.0517578E-4 -1.7547607E-4 4.119873E-4c-1.0681152E-4 1.2207031E-4 -2.5177002E-4 1.8310547E-4 -4.119873E-4 1.8310547E-4l-29.983665 -5.950928E-4c-3.2043457E-4 0 -5.79834E-4 -2.593994E-4 -5.79834E-4 -5.79834E-4l5.79834E-4 -69.92067l0 0c0 -3.2806396E-4 2.593994E-4 -5.874634E-4 5.79834E-4 -5.874634E-4z"
              fill-rule="evenodd"/>
    </g>
</svg>