<svg version="1.1" viewBox="0.0 0.0 211.1994750656168 182.3989501312336" fill="none" stroke="none"
     stroke-linecap="square" stroke-miterlimit="10" xmlns:xlink="http://www.w3.org/1999/xlink"
     xmlns="http://www.w3.org/2000/svg">
    <clipPath id="g36894560d47_0_28.0">
        <path d="m0 0l211.19948 0l0 182.39896l-211.19948 0l0 -182.39896z" clip-rule="nonzero"/>
    </clipPath>
    <g clip-path="url(#g36894560d47_0_28.0)">
        <path fill="#ffffff"
              d="m0 30.391684l0 0c0 -16.789211 13.610346 -30.399557 30.399559 -30.399557l150.41348 0c8.0624695 0 15.7947235 3.2028015 21.495743 8.903825c5.7010193 5.701023 8.903824 13.4332695 8.903824 21.495733l0 121.59458c0 16.789215 -13.610352 30.399567 -30.399567 30.399567l-150.41348 0c-16.789213 0 -30.399559 -13.610352 -30.399559 -30.399567z"
              fill-rule="evenodd"/>
        <path fill="#20124d"
              d="m77.86856 73.832l0 0c0 -33.545864 27.109688 -60.740158 60.551178 -60.740158l0 0c16.059174 0 31.460602 6.399391 42.816147 17.79038c11.35556 11.390987 17.735031 26.840485 17.735031 42.94978l0 0c0 33.54586 -27.10968 60.740158 -60.551178 60.740158l0 0c-33.44149 0 -60.551178 -27.194298 -60.551178 -60.740158z"
              fill-rule="evenodd"/>
        <defs>
            <radialGradient id="g36894560d47_0_28.1" gradientUnits="userSpaceOnUse"
                            gradientTransform="matrix(0.0 6.1676854717214615 -6.1676854717214615 0.0 0.0 0.0)"
                            spreadMethod="pad" cx="22.619009533247464" cy="-7.37834448528875" fx="22.619009533247464"
                            fy="-7.37834448528875" r="6.167685508728027">
                <stop offset="0.0" stop-color="#4d29aa"/>
                <stop offset="1.0" stop-color="#1e123d"/>
            </radialGradient>
        </defs>
        <path fill="url(#g36894560d47_0_28.1)"
              d="m60.499435 104.5463l0 0c3.2043457E-4 0 5.79834E-4 2.670288E-4 5.79834E-4 5.874634E-4l-5.79834E-4 69.92067c0 1.6784668E-4 -6.484985E-5 3.0517578E-4 -1.7166138E-4 4.119873E-4c-1.1062622E-4 1.2207031E-4 -2.593994E-4 1.8310547E-4 -4.119873E-4 1.8310547E-4l-29.98367 -5.950928E-4c-3.2234192E-4 0 -5.836487E-4 -2.593994E-4 -5.836487E-4 -5.79834E-4l5.836487E-4 -69.92068l0 0c0 -3.2043457E-4 2.593994E-4 -5.79834E-4 5.8174133E-4 -5.79834E-4z"
              fill-rule="evenodd"/>
        <path fill="#20124d"
              d="m109.146645 104.548584l0 0c3.2043457E-4 0 5.79834E-4 2.593994E-4 5.79834E-4 5.79834E-4l-5.79834E-4 69.92067c0 1.6784668E-4 -6.1035156E-5 3.0517578E-4 -1.7547607E-4 4.119873E-4c-1.0681152E-4 1.2207031E-4 -2.5177002E-4 1.8310547E-4 -4.119873E-4 1.8310547E-4l-29.983665 -5.950928E-4c-3.2043457E-4 0 -5.79834E-4 -2.593994E-4 -5.79834E-4 -5.79834E-4l5.79834E-4 -69.92067l0 0c0 -3.2806396E-4 2.593994E-4 -5.874634E-4 5.79834E-4 -5.874634E-4z"
              fill-rule="evenodd"/>
        <defs>
            <radialGradient id="g36894560d47_0_28.2" gradientUnits="userSpaceOnUse"
                            gradientTransform="matrix(6.571937736208081 0.0 0.0 6.571937736208081 0.0 0.0)"
                            spreadMethod="pad" cx="15.368887329409194" cy="4.274008822501986" fx="15.368887329409194"
                            fy="4.274008822501986" r="6.571937561035156">
                <stop offset="0.0" stop-color="#4d29aa"/>
                <stop offset="1.0" stop-color="#1e123d"/>
            </radialGradient>
        </defs>
        <path fill="url(#g36894560d47_0_28.2)"
              d="m60.499435 13.096394l0 0c0 -3.7288666E-4 3.0136108E-4 -6.752014E-4 6.713867E-4 -6.752014E-4l81.0072 6.752014E-4c1.8310547E-4 0 3.5095215E-4 7.1525574E-5 4.7302246E-4 1.9741058E-4c1.2207031E-4 1.2683868E-4 1.9836426E-4 2.9850006E-4 1.9836426E-4 4.7779083E-4l-6.713867E-4 29.983578c0 3.7384033E-4 -3.0517578E-4 6.752014E-4 -6.713867E-4 6.752014E-4l-81.0072 -6.752014E-4l0 0c-3.7384033E-4 0 -6.752014E-4 -3.0136108E-4 -6.752014E-4 -6.752014E-4z"
              fill-rule="evenodd"/>
        <path fill="#20124d"
              d="m79.152466 104.5463l0 0c0 -2.822876E-4 2.2888184E-4 -5.187988E-4 5.187988E-4 -5.187988E-4l62.424667 5.187988E-4c1.5258789E-4 0 2.746582E-4 6.1035156E-5 3.8146973E-4 1.5258789E-4c9.1552734E-5 9.918213E-5 1.5258789E-4 2.3651123E-4 1.5258789E-4 3.7384033E-4l-5.340576E-4 29.983734c0 2.89917E-4 -2.2888184E-4 5.187988E-4 -5.187988E-4 5.187988E-4l-62.424667 -5.187988E-4l0 0c-2.89917E-4 0 -5.264282E-4 -2.4414062E-4 -5.264282E-4 -5.187988E-4z"
              fill-rule="evenodd"/>
        <path fill="#ffffff" d="m11.466328 43.092247l130.74016 0l0 61.448822l-130.74016 0z" fill-rule="evenodd"/>
        <path fill="#ffffff"
              d="m108.658936 73.810875l0 0c0 -16.968624 13.8545 -30.724411 30.944885 -30.724411l0 0c8.207092 0 16.078049 3.2370262 21.881332 8.998974c5.803299 5.761944 9.063553 13.576817 9.063553 21.725437l0 0c0 16.96862 -13.854492 30.724411 -30.944885 30.724411l0 0c-17.090385 0 -30.944885 -13.755791 -30.944885 -30.724411z"
              fill-rule="evenodd"/>
        <path fill="#20124d"
              d="m121.60069 73.81348l0 0c0 -8.2799225 6.712204 -14.992126 14.992126 -14.992126l0 0c3.9761505 0 7.789459 1.5795212 10.601028 4.3910904c2.8115692 2.8115692 4.391098 6.624878 4.391098 10.601036l0 0c0 8.2799225 -6.712204 14.992126 -14.992126 14.992126l0 0c-8.2799225 0 -14.992126 -6.712204 -14.992126 -14.992126z"
              fill-rule="evenodd"/>
        <path fill="#20124d"
              d="m13.782633 73.81348l0 0c0 -8.2799225 6.712204 -14.992126 14.992126 -14.992126l0 0c3.97616 0 7.789465 1.5795212 10.601034 4.3910904c2.8115692 2.8115692 4.3910904 6.624878 4.3910904 10.601036l0 0c0 8.2799225 -6.712204 14.992126 -14.992125 14.992126l0 0c-8.2799225 0 -14.992126 -6.712204 -14.992126 -14.992126z"
              fill-rule="evenodd"/>
        <defs>
            <radialGradient id="g36894560d47_0_28.3" gradientUnits="userSpaceOnUse"
                            gradientTransform="matrix(7.444578352209855 0.0 0.0 7.444578352209855 0.0 0.0)"
                            spreadMethod="pad" cx="11.074912494043444" cy="9.9149394732996" fx="11.074912494043444"
                            fy="9.9149394732996" r="7.444578170776367">
                <stop offset="0.0" stop-color="#4d29aa"/>
                <stop offset="1.0" stop-color="#1e123d"/>
            </radialGradient>
        </defs>
        <path fill="url(#g36894560d47_0_28.3)"
              d="m29.093723 58.820415l0 0c0 -4.8828125E-4 3.9863586E-4 -8.8882446E-4 8.8882446E-4 -8.8882446E-4l106.70777 8.8882446E-4c2.4414062E-4 0 4.5776367E-4 9.536743E-5 6.2561035E-4 2.632141E-4c1.6784668E-4 1.6403198E-4 2.593994E-4 3.9291382E-4 2.593994E-4 6.2942505E-4l-8.8500977E-4 29.983364c0 4.8828125E-4 -3.9672852E-4 8.8500977E-4 -8.8500977E-4 8.8500977E-4l-106.70778 -8.8500977E-4l0 0c-4.9209595E-4 0 -8.8882446E-4 -4.043579E-4 -8.8882446E-4 -8.9263916E-4z"
              fill-rule="evenodd"/>
    </g>
</svg>