<svg version="1.1" viewBox="0.0 0.0 345.6010498687664 288.0" fill="none" stroke="none" stroke-linecap="square"
     stroke-miterlimit="10" xmlns="http://www.w3.org/2000/svg">
    <clipPath id="g3630ab10031_0_66.0">
        <path d="m0 0l345.60104 0l0 288.0l-345.60104 0l0 -288.0z" clip-rule="nonzero"/>
    </clipPath>
    <g clip-path="url(#g3630ab10031_0_66.0)">
<!--        <path fill="#ffffff" d="m0 0l345.60104 0l0 288.0l-345.60104 0z" fill-rule="evenodd"/>-->
        <path fill="#999999" d="m25.412073 200.12862l73.039375 0l0 75.81102l-73.039375 0z" fill-rule="evenodd"/>
        <path stroke="#999999" stroke-width="24.0" stroke-linejoin="round" stroke-linecap="butt"
              d="m25.412073 200.12862l73.039375 0l0 75.81102l-73.039375 0z" fill-rule="evenodd"/>
        <path fill="#999999" d="m143.64043 115.845146l86.866135 0l0 160.09448l-86.866135 0z" fill-rule="evenodd"/>
        <path stroke="#999999" stroke-width="24.0" stroke-linejoin="round" stroke-linecap="butt"
              d="m143.64043 115.845146l86.866135 0l0 160.09448l-86.866135 0z" fill-rule="evenodd"/>
        <path fill="#999999"
              d="m143.63913 113.0105l0 0c0 -51.279858 42.86081 -92.850395 95.732285 -92.850395l0 0c25.389786 0 49.73967 9.782425 67.69295 27.19525c17.953278 17.412827 28.039337 41.029686 28.039337 65.65514l0 0c0 51.27986 -42.86081 92.85039 -95.732285 92.85039l0 0c-52.871475 0 -95.732285 -41.570526 -95.732285 -92.85039z"
              fill-rule="evenodd"/>
        <path stroke="#999999" stroke-width="24.0" stroke-linejoin="round" stroke-linecap="butt"
              d="m143.63913 113.0105l0 0c0 -51.279858 42.86081 -92.850395 95.732285 -92.850395l0 0c25.389786 0 49.73967 9.782425 67.69295 27.19525c17.953278 17.412827 28.039337 41.029686 28.039337 65.65514l0 0c0 51.27986 -42.86081 92.85039 -95.732285 92.85039l0 0c-52.871475 0 -95.732285 -41.570526 -95.732285 -92.85039z"
              fill-rule="evenodd"/>
        <path fill="#999999"
              d="m18.497377 113.03928l0 0c0 -24.26574 19.445646 -43.93701 43.433067 -43.93701l0 0c11.519169 0 22.56654 4.6290665 30.711819 12.868851c8.145279 8.239792 12.721252 19.415337 12.721252 31.068161l0 0c0 24.26574 -19.445648 43.937004 -43.43307 43.937004l0 0c-23.987423 0 -43.433067 -19.671265 -43.433067 -43.937004z"
              fill-rule="evenodd"/>
        <path stroke="#1a73e8" stroke-width="24.0" stroke-linejoin="round" stroke-linecap="butt"
              d="m18.497377 113.03928l0 0c0 -24.26574 19.445646 -43.93701 43.433067 -43.93701l0 0c11.519169 0 22.56654 4.6290665 30.711819 12.868851c8.145279 8.239792 12.721252 19.415337 12.721252 31.068161l0 0c0 24.26574 -19.445648 43.937004 -43.43307 43.937004l0 0c-23.987423 0 -43.433067 -19.671265 -43.433067 -43.937004z"
              fill-rule="evenodd"/>
        <path fill="#ffffff"
              d="m195.91844 113.03928l0 0c0 -24.26574 19.445648 -43.93701 43.433075 -43.93701l0 0c11.519165 0 22.566544 4.6290665 30.711807 12.868851c8.145294 8.239792 12.721252 19.415337 12.721252 31.068161l0 0c0 24.26574 -19.445648 43.937004 -43.43306 43.937004l0 0c-23.987427 0 -43.433075 -19.671265 -43.433075 -43.937004z"
              fill-rule="evenodd"/>
        <path stroke="#1a73e8" stroke-width="24.0" stroke-linejoin="round" stroke-linecap="butt"
              d="m195.91844 113.03928l0 0c0 -24.26574 19.445648 -43.93701 43.433075 -43.93701l0 0c11.519165 0 22.566544 4.6290665 30.711807 12.868851c8.145294 8.239792 12.721252 19.415337 12.721252 31.068161l0 0c0 24.26574 -19.445648 43.937004 -43.43306 43.937004l0 0c-23.987427 0 -43.433075 -19.671265 -43.433075 -43.937004z"
              fill-rule="evenodd"/>
        <path fill="#000000" fill-opacity="0.0" d="m56.894825 69.10227l182.4567 0" fill-rule="evenodd"/>
        <path stroke="#1a73e8" stroke-width="24.0" stroke-linejoin="round" stroke-linecap="butt"
              d="m56.894825 69.10227l182.4567 0" fill-rule="evenodd"/>
        <path fill="#000000" fill-opacity="0.0" d="m56.894825 156.9133l182.4567 0.06298828" fill-rule="evenodd"/>
        <path stroke="#1a73e8" stroke-width="24.0" stroke-linejoin="round" stroke-linecap="butt"
              d="m56.894825 156.9133l182.4567 0.06298828" fill-rule="evenodd"/>
    </g>
</svg>